<?xml version="1.0" standalone="no"?>
<!DOCTYPE svg PUBLIC "-//W3C//DTD SVG 20010904//EN"
 "http://www.w3.org/TR/2001/REC-SVG-20010904/DTD/svg10.dtd">
<svg version="1.0" xmlns="http://www.w3.org/2000/svg"
 width="409.000000pt" height="96.000000pt" viewBox="0 0 409.000000 96.000000"
 preserveAspectRatio="xMidYMid meet">

<g transform="translate(0.000000,96.000000) scale(0.100000,-0.100000)"
fill="#000000" stroke="none">
<path d="M2688 740 c-120 -21 -216 -77 -239 -138 -11 -28 -2 -69 16 -76 11 -4
12 0 3 19 -20 45 45 117 147 161 29 13 68 18 142 18 88 1 105 -2 130 -20 37
-28 44 -88 14 -126 -25 -32 -97 -51 -157 -42 -29 4 -44 3 -44 -5 0 -6 19 -14
42 -17 86 -14 115 -90 61 -155 -30 -35 -114 -79 -151 -79 -35 0 -89 28 -107
57 -16 24 -15 26 27 71 24 26 65 74 91 108 26 33 74 82 106 109 61 50 67 65
27 65 -29 0 -95 -69 -196 -203 -40 -54 -76 -94 -80 -90 -4 4 -13 25 -20 46
-16 50 -44 47 -83 -10 -34 -48 -51 -142 -26 -144 27 -2 43 3 78 26 l35 24 14
-20 c64 -92 301 -45 349 68 17 41 3 97 -28 113 -25 14 -24 30 1 30 12 0 38 9
58 19 83 42 81 141 -3 177 -43 17 -148 25 -207 14z m-208 -339 l15 -43 -33
-29 c-43 -39 -62 -38 -62 3 0 39 38 120 54 115 6 -2 18 -23 26 -46z"/>
<path d="M575 706 c-123 -31 -193 -98 -169 -161 9 -22 50 -41 130 -60 38 -9
79 -22 91 -31 47 -31 17 -92 -69 -139 -44 -24 -68 -30 -140 -33 l-86 -4 -15
28 c-8 16 -18 49 -22 74 -10 69 -15 80 -34 80 -27 0 -54 -36 -54 -71 0 -34 29
-79 64 -96 85 -42 112 -53 127 -52 14 0 14 2 -3 8 -14 6 -2 10 42 15 106 12
164 34 210 81 37 36 43 48 43 83 0 53 -21 68 -136 93 -96 21 -114 31 -114 63
0 70 169 138 264 106 64 -21 70 -98 8 -101 -24 -2 -25 -2 -4 -6 13 -3 34 3 48
12 33 21 30 70 -6 96 -33 24 -113 31 -175 15z m-310 -305 c4 -22 15 -56 25
-75 23 -46 11 -46 -29 -1 -24 27 -31 45 -31 75 0 54 26 54 35 1z"/>
<path d="M847 588 c-48 -61 -167 -259 -167 -279 0 -5 7 -9 15 -9 8 0 15 4 15
9 0 24 145 161 171 161 4 0 -6 -26 -22 -57 -48 -95 -18 -138 58 -83 38 27 43
29 43 13 0 -53 55 -56 110 -7 l40 36 0 -25 c0 -16 8 -31 20 -37 26 -14 78 16
111 61 27 38 34 32 15 -12 -10 -23 -11 -40 -5 -50 8 -11 18 -4 51 36 48 56
129 135 140 135 4 0 -6 -28 -22 -62 -39 -84 -47 -118 -27 -118 8 0 20 13 27
30 13 31 98 123 130 140 16 9 15 1 -11 -54 -25 -53 -28 -69 -19 -85 14 -28 49
-27 94 4 l36 24 0 -23 c0 -63 68 -54 143 21 52 51 53 51 33 1 -10 -23 -11 -39
-5 -49 8 -11 18 -4 51 36 48 56 129 135 140 135 4 0 -6 -28 -22 -62 -39 -84
-47 -118 -27 -118 8 0 20 13 27 30 13 31 98 123 130 140 16 9 15 1 -11 -54
-25 -53 -28 -69 -19 -85 21 -39 80 -20 140 45 l35 38 -43 -37 c-55 -48 -89
-64 -104 -49 -16 16 -3 51 42 112 66 88 14 92 -88 6 -24 -20 -46 -36 -49 -36
-3 0 7 21 21 47 18 31 23 50 16 57 -14 14 -52 -9 -133 -84 l-71 -65 38 68 c25
46 35 72 28 79 -6 6 -19 -3 -38 -29 -93 -126 -161 -184 -198 -170 -22 8 -7 45
45 114 42 56 48 73 25 73 -15 0 -42 -30 -92 -101 -35 -51 -97 -90 -115 -72
-17 17 -5 52 41 113 66 88 14 92 -88 6 -24 -20 -46 -36 -49 -36 -3 0 7 21 21
47 18 31 23 50 16 57 -14 14 -52 -9 -133 -84 l-71 -65 38 68 c50 90 35 112
-22 35 -67 -88 -129 -150 -148 -146 -29 5 -26 21 16 90 22 37 40 72 40 77 0
27 -30 6 -64 -44 -44 -63 -119 -135 -141 -135 -28 0 -18 56 18 96 44 51 105
94 134 94 28 0 31 16 4 25 -36 11 -90 -24 -180 -116 -51 -52 -95 -89 -103 -87
-22 9 -10 48 37 113 24 34 41 65 38 69 -15 14 -44 3 -111 -43 -40 -28 -72 -46
-72 -42 0 5 31 51 70 102 38 52 70 97 70 102 0 20 -33 2 -63 -35z"/>
<path d="M1782 553 c4 -22 43 -25 43 -3 0 8 -11 16 -23 18 -19 3 -23 0 -20
-15z"/>
<path d="M3745 511 c-49 -23 -109 -84 -129 -132 -13 -32 -13 -38 0 -57 21 -30
53 -27 97 9 26 21 37 26 37 15 0 -8 7 -22 16 -31 29 -28 74 -2 137 80 25 33
20 30 -29 -17 -96 -94 -124 -72 -54 42 l40 65 -28 22 c-33 27 -37 27 -87 4z
m75 -17 c0 -14 -91 -133 -121 -158 -63 -53 -91 -9 -39 61 33 45 113 103 142
103 10 0 18 -3 18 -6z"/>
<path d="M2968 458 c-52 -56 -86 -105 -55 -80 14 12 14 10 4 -23 -9 -29 -8
-38 5 -51 14 -14 19 -14 44 -1 16 8 40 27 53 41 32 34 36 33 36 -6 0 -28 4
-33 26 -36 17 -2 37 6 58 23 24 20 31 23 31 11 0 -23 46 -49 73 -42 13 3 40
17 61 31 44 30 42 30 49 5 10 -39 59 -24 140 43 26 22 50 38 52 35 11 -10 -78
-168 -110 -197 -41 -35 -52 -37 -83 -15 -12 8 -22 10 -22 5 0 -6 11 -18 24
-26 21 -14 28 -14 58 -2 39 16 79 61 110 121 11 22 40 73 64 113 24 39 44 74
44 77 0 18 -29 -1 -88 -55 -80 -73 -149 -116 -163 -102 -11 11 13 44 80 115
28 31 33 40 22 50 -10 11 -27 -2 -84 -65 -82 -88 -121 -117 -159 -117 -32 0
-42 13 -34 46 4 16 13 24 27 24 30 0 84 27 114 57 44 45 27 83 -31 69 -31 -8
-110 -80 -130 -118 -15 -29 -90 -85 -100 -75 -13 12 7 56 51 112 25 32 45 64
45 72 0 31 -34 8 -95 -64 -60 -72 -118 -123 -137 -123 -29 0 29 117 82 165 19
18 19 35 -2 35 -6 0 -33 -24 -60 -52z m382 19 c0 -28 -83 -87 -121 -87 -15 0
26 49 63 77 36 26 58 30 58 10z"/>
</g>
</svg>
